# xmcd CD database file
#
# Track frame offsets:
#	150
#	80180
#	150675
#	210738
#	235558
#
# Disc length: 3632 seconds
#
# Revision: 2
# Processed by: cddbd v1.5.2PL0 Copyright (c) Steve Scherf et al.
# Submitted via: CDex 1.70beta2
#
DISCID=380e2e05
DTITLE=Felix Maria Woschek and Friends - Jamuna - River of Joy
DYEAR=2001
DGENRE=New Age
TTITLE0=Arati
TTITLE1=Jaya Gauri Shankara
TTITLE2=Shakti Shiva
TTITLE3=Gauri Ganesh
TTITLE4=Amba Bhavani
EXTD=YEAR: 2001
EXTT0=
EXTT1=
EXTT2=
EXTT3=
EXTT4=
PLAYORDER=
